<?xml version="1.0" standalone="no"?>
<!DOCTYPE svg PUBLIC "-//W3C//DTD SVG 20010904//EN"
 "http://www.w3.org/TR/2001/REC-SVG-20010904/DTD/svg10.dtd">
<svg version="1.0" xmlns="http://www.w3.org/2000/svg"
 width="640.000000pt" height="616.000000pt" viewBox="0 0 640.000000 616.000000"
 preserveAspectRatio="xMidYMid meet">

<g transform="translate(0.000000,616.000000) scale(0.100000,-0.100000)"
fill="#000000" stroke="none">
<path d="M4190 6141 c-88 -25 -155 -53 -220 -91 -329 -194 -551 -598 -601
-1095 -47 -473 143 -910 467 -1073 187 -95 337 -95 530 -2 272 131 503 415
608 747 58 187 70 271 70 503 1 293 -23 418 -114 600 -97 194 -263 345 -440
401 -94 29 -219 34 -300 10z"/>
<path d="M1870 6119 c-111 -30 -219 -99 -312 -198 -119 -127 -191 -268 -229
-451 -26 -125 -32 -403 -10 -535 88 -551 394 -965 816 -1106 172 -57 377 -8
543 130 66 55 146 165 197 273 116 246 142 552 75 880 -105 510 -423 900 -816
1003 -64 16 -209 19 -264 4z"/>
<path d="M5656 4294 c-235 -51 -448 -190 -611 -399 -175 -225 -266 -449 -311
-765 -30 -211 -2 -396 87 -579 42 -87 64 -117 132 -186 132 -133 254 -182 427
-172 224 14 435 120 619 312 239 251 373 572 396 955 25 402 -193 761 -506
835 -79 18 -143 18 -233 -1z"/>
<path d="M492 4165 c-110 -24 -208 -79 -293 -164 -86 -86 -127 -160 -159 -286
-93 -366 -11 -777 222 -1117 196 -286 517 -489 798 -505 85 -5 103 -2 174 21
199 67 350 238 406 461 76 298 19 677 -143 968 -166 295 -466 552 -725 618
-87 22 -189 23 -280 4z"/>
<path d="M3085 2949 c-335 -46 -677 -203 -946 -436 -121 -105 -192 -188 -343
-403 -271 -385 -440 -748 -547 -1175 -68 -268 -62 -383 27 -565 81 -163 234
-292 400 -335 77 -20 272 -20 388 1 120 21 274 68 550 170 296 110 452 150
649 168 313 28 455 -3 982 -219 328 -134 381 -148 550 -149 153 0 220 14 343
75 144 70 244 191 278 335 24 103 15 318 -19 439 -58 209 -182 470 -339 713
-245 382 -430 624 -638 833 -300 301 -568 465 -865 530 -106 23 -362 33 -470
18z"/>
</g>
</svg>
